<svg width="500" height="354" viewBox="0 0 500 354" version="1.1" xmlns="http://www.w3.org/2000/svg" xmlns:xlink="http://www.w3.org/1999/xlink">
<title>Header Image</title>
<desc>Created using Figma</desc>
<g id="Canvas" transform="translate(-1924 -868)">
<clipPath id="clip-0" clip-rule="evenodd">
<path d="M 1924 868L 2424 868L 2424 1222L 1924 1222L 1924 868Z" fill="#FFFFFF"/>
</clipPath>
<g id="Header Image" clip-path="url(#clip-0)">
<g id="Group">
<g id="Vector" filter="url(#filter0_d)">
<g id="Vector">
<use xlink:href="#path0_fill" transform="matrix(-1 0 0 1 2412 868)" fill="#FFFFFF"/>
</g>
</g>
<g id="Bison Studio">
<use xlink:href="#path1_fill" transform="translate(1924 1149.2)" fill="#FFFFFF"/>
</g>
</g>
</g>
</g>
<defs>
<filter id="filter0_d" filterUnits="userSpaceOnUse" x="1929" y="868" width="483" height="290" color-interpolation-filters="sRGB">
<feFlood flood-opacity="0" result="BackgroundImageFix"/>
<feColorMatrix in="SourceAlpha" type="matrix" values="0 0 0 0 0 0 0 0 0 0 0 0 0 0 0 0 0 0 255 0"/>
<feOffset dx="-4" dy="4"/>
<feGaussianBlur stdDeviation="2"/>
<feColorMatrix type="matrix" values="0 0 0 0 0 0 0 0 0 0 0 0 0 0 0 0 0 0 0.25 0"/>
<feBlend mode="normal" in2="BackgroundImageFix" result="effect1_dropShadow"/>
<feBlend mode="normal" in="SourceGraphic" in2="effect1_dropShadow" result="shape"/>
</filter>
<path id="path0_fill" d="M 464.147 135.521C 465.843 137.034 467.652 137.876 472.678 138.624C 471.145 137.611 468.12 135.069 467.448 132.813C 469.235 134.159 471.612 134.897 475 135.916C 472.038 132.813 470.26 132.241 468.8 130.879C 468.278 130.401 467.358 129.335 466.881 128.82C 465.997 127.879 464.101 126.122 463.366 125.067C 462.636 124.001 462.636 124.001 461.053 120.415C 464.645 123.487 463.865 122.057 469.185 127.006C 467.276 121.439 463.761 118.091 460.269 114.988C 456.785 111.889 456.014 107.626 456.014 107.626C 456.014 107.626 454.463 90.9657 450.979 85.5385C 447.486 80.1167 440.879 71.248 421.91 65.7795C 420.428 65.3482 416.446 64.4279 411.451 63.456C 402.535 61.7193 395.143 58.9123 381.611 52.9862C 372.634 49.0561 360.839 48.8276 354.491 46.3997C 351.565 45.2874 345.961 41.3625 345.961 41.3625L 341.308 38.649L 337.805 37.3546L 333.563 36.3253C 333.563 36.3253 325.817 31.6727 324.263 31.6727C 322.708 31.6727 314.188 28.5745 313.024 28.1898C 311.865 27.7999 306.822 25.4762 304.493 23.9271C 302.164 22.378 292.88 19.2745 292.88 19.2745C 292.88 19.2745 284.739 16.1763 283.185 16.1763C 281.641 16.1763 273.111 13.4627 270.787 13.0729C 268.474 12.6882 261.497 10.3593 261.497 10.3593L 252.296 7.65092L 244.213 6.51767C 244.213 6.51767 236.67 6.53327 234.361 5.71715C 232.532 5.06735 226.72 3.01396 224.006 3.01396C 221.293 3.01396 215.762 4.1992 214.212 3.03475C 212.664 1.87031 203.363 0.321193 202.199 0.321193C 201.034 0.321193 194.833 0.321193 193.289 0.321193C 191.74 0.321193 187.477 -0.0634888 185.923 0.321193C 184.374 0.711073 174.85 0.321193 174.85 0.321193C 174.85 0.321193 170.275 -0.484562 167.583 0.456344C 164.875 1.39726 154.93 3.77812 153.765 3.77812C 152.601 3.77812 150.278 4.93736 148.344 5.71715C 146.405 6.49168 139.044 8.43071 139.044 8.43071L 130.518 12.3087C 130.518 12.3087 124.134 14.2113 122.195 14.6012C 120.262 14.9859 115.833 19.077 115.058 20.2415C 114.284 21.4059 113.343 22.5755 111.019 23.3501C 108.695 24.1246 106.169 26.1416 106.169 26.1416C 106.169 26.1416 105.327 28.5797 102.613 28.5797C 99.9047 28.5797 99.1251 28.9643 97.9608 29.3543C 96.8015 29.7441 96.0268 30.9034 93.6979 31.2932C 91.3743 31.6779 89.0503 34.3915 89.0503 34.3915C 89.0503 34.3915 86.7735 37.8121 86.7735 38.9765C 86.7735 40.1357 83.2752 40.8583 83.2752 40.8583L 80.7177 42.7453C 80.7177 42.7453 79.2046 45.2614 78.5914 46.0205C 77.9052 46.8727 76.5795 48.9836 75.4932 49.1187C 74.3702 49.2539 72.7066 47.0963 71.6149 46.7947C 70.7731 46.5612 69.0002 46.7947 68.1271 46.7947C 67.259 46.7947 65.4811 47.0183 64.6438 46.7947C 63.3444 46.4414 61.5923 43.7902 60.423 44.4608C 59.877 44.7779 60.511 46.2437 59.9913 46.6024C 56.9035 48.7133 56.5447 43.7798 55.0947 44.7831C 54.0602 45.5003 54.6267 48.8067 53.4052 49.1133C 52.0169 49.4671 51.1906 44.7311 49.761 44.7727C 48.3781 44.8143 47.9155 47.7617 47.4583 49.0716C 46.3924 52.0868 46.9018 55.0965 45.2695 56.0898C 44.5262 56.542 43.632 56.6667 43.0134 57.2854C 42.1869 58.1118 41.7762 59.5259 40.9912 60.3836C 38.1061 63.5439 39.1666 61.922 38.5688 62.6709C 37.7266 63.7313 35.5173 60.165 34.2593 60.6539C 31.8368 61.5946 30.6048 61.8649 29.8875 62.8994C 28.4007 65.0361 26.5865 62.811 27.0647 63.4764C 27.3974 63.9444 25.3804 64.2873 24.9697 64.6928C 24.0808 65.5817 22.724 65.0307 21.4712 65.0983C 17.9675 65.2906 19.9793 68.6387 19.3139 69.8084C 17.5568 72.922 14.6613 70.2969 14.0739 72.0072C 13.1694 74.6532 12.8731 75.2043 12.7171 76.2751C 12.1973 79.8101 8.81831 79.0872 8.1373 80.0491C 7.66425 80.7145 9.16659 83.2358 8.84947 83.9896C 7.80462 86.5263 7.91896 88.6889 8.84947 89.8014C 9.47328 90.5448 11.4227 91.314 11.9529 92.125C 12.4364 92.8788 11.8074 94.6254 11.3707 95.4C 9.56168 98.6021 10.8873 99.4339 10.6949 100.791C 10.5078 102.095 8.53239 103.328 7.98654 104.528C 7.54991 105.5 8.03852 107.73 7.98654 108.791C 7.83578 111.9 4.79472 113.277 4.97147 114.988C 5.37694 118.845 5.49133 118.881 4.97147 120.025C 4.57121 120.908 5.22618 122.962 4.97147 123.903C 4.61797 125.202 2.08636 127.214 2.26311 128.55C 2.6166 131.269 0.911524 132.953 0.324106 134.367C 0.0225979 135.079 -0.221727 136.915 0.324106 137.471C 1.07787 138.224 3.44835 138.36 4.36327 138.9C 5.72527 139.716 8.4596 142.508 9.62405 142.508C 10.7885 142.508 10.5805 144.348 10.7885 145.216C 11.1264 146.625 11.1784 151.023 11.1784 151.023L 11.1784 156.455C 11.1784 156.455 9.85799 159.99 10.4038 161.877C 12.452 168.931 17.8375 172.7 23.956 171.967C 23.956 171.967 29.4456 176.76 31.0415 177.41C 32.9753 178.179 36.3595 177.753 37.9138 180.466C 39.4629 183.196 43.9023 195.688 46.7353 197.361C 49.761 199.15 52.3707 210.144 54.9646 212.244C 58.1721 214.843 64.7998 215.218 65.4239 214.953C 65.9332 214.75 65.3042 213.523 65.7926 213.279C 66.4009 212.972 69.4056 213.653 69.6864 213.014C 70.1177 212.057 68.1375 210.435 68.709 209.562C 69.3068 208.647 71.3341 210.586 72.1142 209.837C 72.6082 209.359 71.1264 207.758 71.5215 207.197C 71.8022 206.791 72.8472 207.582 73.1746 207.207C 74.0686 206.194 72.8835 202.081 74.1312 201.53C 74.6977 201.286 75.3009 202.575 75.8569 202.3C 76.9904 201.759 75.124 198.723 75.9504 197.772C 76.3976 197.252 77.3178 198.942 77.7646 198.432C 78.2118 197.902 77.2503 196.363 78.2118 195.194C 79.0178 194.211 80.2133 195.355 80.7122 195.001C 81.4193 194.482 79.7815 192.922 80.5353 192.485C 82.9528 191.076 84.0599 192.09 86.9762 191.529C 88.9206 191.154 90.0381 189.507 91.0001 189.387C 91.7485 189.283 93.0325 190.858 94.2643 190.079C 94.9197 189.652 95.5016 192.147 96.2813 192.09C 97.6537 191.981 98.413 189.876 99.0833 191.076C 99.6398 192.09 101.547 193.057 102.333 192.314C 103.216 191.482 103.991 191.804 105.135 192.87C 105.535 193.244 107.094 193.223 107.604 193.426C 108.139 193.65 109.049 195.703 109.506 195.334C 110.515 194.554 110.956 191.872 111.076 192.417C 111.414 193.993 112.199 196.233 114.247 196.743C 115.115 196.956 116.883 197.788 117.735 197.512C 118.713 197.195 119.482 194.05 120.444 194.414C 121.53 194.819 119.388 199.55 120.444 199.067C 121.951 198.354 122.398 197.574 123.547 199.067C 124.01 199.664 124.706 201.005 125.871 201.005C 127.035 201.005 129.198 201.359 128.974 202.165C 127.784 206.427 128.569 216.065 128.231 217.079C 127.004 220.754 126.957 222.34 126.645 224.258C 126.401 225.771 125.314 228.656 124.706 230.065C 124.057 231.567 122.144 234.317 121.608 235.871C 121.062 237.456 120.319 248.077 119.898 250.187C 119.638 251.498 117.574 253.722 116.717 254.757C 115.396 256.374 112.355 257.252 110.754 258.583C 108.493 260.459 105.472 263.812 106.58 264.94C 107.942 266.334 117.486 268.454 118.967 268.444C 120.989 268.444 131.09 267.644 133.346 265.622C 134.864 264.27 137.681 263.105 138.763 261.359C 139.735 259.794 139.87 255.895 140.109 254.071C 140.452 251.492 143.161 246.569 142.802 243.991C 142.646 242.873 141.83 241.017 142.241 239.952C 142.604 239.016 142.922 239.635 143.696 238.975C 145.188 237.727 145.245 232.211 147.184 232.008C 148.416 231.879 149.55 234.883 150.283 235.876C 151.135 237.036 153.319 238.995 154.545 239.754C 155.694 240.466 158.47 242.457 159.583 241.693C 160.305 241.194 158.933 238.787 159.583 238.21C 160.238 237.613 162.301 239.011 163.071 238.584C 164.022 238.065 164.027 235.164 165.01 234.707C 165.374 234.556 166.179 234.982 166.559 235.112C 167.401 235.357 169.158 236.765 169.875 236.261C 170.271 235.986 169.407 234.452 169.875 234.322C 170.852 234.046 171.227 236.869 172.168 236.485C 172.729 236.24 173.171 232.82 174.185 231.884C 174.788 231.317 176.779 232.159 177.403 231.619C 178.317 230.818 178.551 227.049 179.726 227.356C 180.382 227.517 180.152 229.233 180.454 228.635C 183.77 221.924 187.087 216.887 189.416 216.117C 191.74 215.337 191.901 213.944 194.069 215.337C 194.823 215.826 195.03 212.665 195.909 212.847C 196.762 213.009 197.645 214.339 197.843 215.181C 198.046 216.023 198.342 217.25 199.163 217.537C 200.208 217.879 200.442 215.447 201.544 215.504C 202.672 215.587 203.072 218.904 203.374 219.99C 203.66 221.014 204.003 223.026 204.351 224.019C 205.063 226.119 207.252 229.29 207.636 231.998C 208.021 234.702 207.751 240.679 207.636 242.073C 207.486 243.872 208.37 246.58 207.72 249.434C 207.086 252.205 205.292 255.823 204.538 257.954C 204.081 259.274 198.295 262.83 197.547 263.994C 197.063 264.748 193.481 268.361 193.59 269.255C 193.689 270.076 199.917 270.981 202.21 271.408C 205.173 271.948 210.755 271.672 212.986 271.672C 214.436 271.672 220.815 268.585 221.527 267.316C 223.268 264.207 223.565 260.532 224.027 259.285C 225.041 256.545 228.217 250.879 228.607 249.325C 228.997 247.77 229.522 244.807 231.57 243.393C 234.595 241.304 234.902 242.083 235.542 242.847C 236.197 243.638 236.706 244.688 237.673 244.318C 238.76 243.913 237.132 241.61 238.261 241.293C 239.347 240.997 239.643 243.435 240.73 243.133C 242.357 242.676 239.908 240.607 240.579 240.139C 241.452 239.562 243.412 241.288 244.145 240.534C 244.805 239.853 242.268 238.907 242.918 238.21C 243.526 237.519 246.552 239.156 247.103 238.413C 247.815 237.467 244.218 235.591 244.332 234.421C 244.415 233.464 246.302 233.002 247.082 232.44C 247.784 231.931 249.042 231.962 249.499 231.234C 249.905 230.574 249.39 229.607 250.097 229.306C 251.002 228.921 252.655 230.319 252.322 229.415C 251.885 228.266 249.146 226.784 248.73 225.412C 248.455 224.508 250.263 227.039 250.809 226.275C 251.579 225.188 248.382 223.431 249.115 222.314C 249.572 221.622 251.672 223.592 252.322 223.083C 253.164 222.413 251.756 220.624 252.322 219.995C 252.821 219.429 253.965 221.336 254.474 220.775C 255.207 219.964 254.282 217.344 254.687 216.33C 254.942 215.732 254.687 216.331 254.932 215.722C 255.285 214.776 252.374 214.412 252.728 213.466C 253.123 212.38 255.498 212.582 256.86 211.839C 257.988 211.231 252.982 210.612 252.322 209.515C 251.969 208.938 253.304 207.415 252.899 206.864C 252.525 206.355 249.863 206.672 249.884 206.022C 249.926 204.832 254.495 206.063 254.537 204.862C 254.588 203.646 249.905 204.535 249.884 203.319C 249.874 202.18 248.563 202.284 248.647 201.156C 248.751 199.726 250.212 199.966 249.115 199.056C 248.637 198.661 246.079 197.627 245.736 197.117C 245.288 196.467 244.66 195.713 245.065 194.648C 245.361 193.837 244.062 193.816 244.275 192.964C 244.628 191.581 245.2 192.922 244.467 191.695C 243.921 190.759 244.628 188.394 244.946 187.359C 245.148 186.71 245.341 185.067 246.022 185.104C 248.548 185.254 245.928 182.14 246.297 181.642C 247.056 180.617 250.539 180.404 251.568 179.619C 253.627 178.086 255.711 176.968 261.528 176.573C 267.335 176.188 269.274 177.732 272.757 178.117C 276.251 178.522 283.216 178.522 287.094 179.287C 290.972 180.066 304.031 184.568 308.059 184.22C 311.563 183.934 310.913 186.289 313.44 187.359C 315.92 188.415 319.631 188.113 322.74 187.359C 331.676 185.207 338.304 181.34 341.017 179.401C 343.731 177.462 355.251 167.387 357.616 168.058C 360.865 168.983 360.974 187.879 361.759 191.846C 362.482 195.49 365.335 218.113 364.561 221.217C 363.791 224.315 358 236.641 356.847 239.349C 355.677 242.057 347.152 254.455 344.823 256.395C 342.494 258.333 336.302 263.381 334.363 266.079C 332.435 268.787 330.87 270.342 334.748 271.116C 338.626 271.891 340.95 273.055 346.772 273.055C 352.579 273.055 356.062 273.44 359.939 271.116C 363.807 268.792 366.531 266.853 367.301 263.381C 368.07 259.888 369.239 255.625 370.783 252.527C 372.338 249.418 380.125 235.938 383.504 231.52C 387.007 226.95 389.768 221.134 392.092 219.579C 394.426 218.035 395.2 216.096 395.585 213.772C 395.97 211.459 393.932 207.254 393.932 203.386C 393.932 199.519 394.431 189.621 394.431 187.354C 394.431 185.099 399.468 179.281 399.468 179.281C 399.468 179.281 415.349 196.722 418.058 199.82C 420.766 202.929 429.681 208.351 431.621 210.664C 433.559 212.988 442.09 221.913 442.859 226.566C 443.629 231.218 449.451 250.588 449.836 253.686C 450.22 256.795 447.491 263.137 447.174 264.712C 446.727 266.947 443.946 273.892 443.244 274.999C 442.656 275.935 441.518 278.311 442.085 279.262C 443.301 281.305 450.277 281.201 451.405 281.201C 452.544 281.201 458.858 280.411 461.643 278.935C 463.72 277.848 465.956 274.61 466.455 273.117C 467.167 271.007 465.562 265.159 465.784 262.913C 465.988 260.834 465.217 252.069 465.217 250.13C 465.217 248.191 466.101 247.115 466.85 246.658C 467.326 246.362 465.625 246.538 465.562 245.977C 465.43 244.859 465.743 244.272 465.339 243.217C 465.04 242.494 467.512 240.971 466.881 240.508C 461.747 236.682 463.652 236.568 466.496 235.855C 467.126 235.705 464.332 235.325 464.174 234.686C 464.051 234.208 465.035 233.459 465.321 233.053C 465.707 232.497 463.221 232.424 463.099 231.754C 462.768 230.028 462.083 228.375 461.076 226.95C 460.223 225.755 460.296 223.842 460.296 221.134C 460.296 218.425 458.355 212.993 458.355 209.51C 458.355 206.017 456.427 200.605 456.427 199.051C 456.427 197.496 456.853 193.192 454.871 191.69C 448.863 187.131 435.665 173.516 433.949 162.62C 432.499 153.393 437.541 139.711 438.773 133.099C 439.808 127.552 437.817 111.198 437.422 108.099C 437.037 105.001 438.602 94.038 435.888 88.6108C 433.174 83.1836 429.687 78.1465 429.687 78.1465C 429.687 78.1465 437.442 78.9212 440.926 82.409C 444.419 85.8972 449.056 91.709 449.841 97.1362C 450.61 102.558 452.939 109.919 452.549 111.468C 452.165 113.017 447.127 121.932 447.127 123.092C 447.127 124.251 445.89 129.496 445.957 132.007C 445.989 132.875 446.737 134.232 447.268 135.688C 447.798 137.143 453.796 140.829 455.81 141.728C 453.688 138.474 451.686 136.837 449.841 132.782C 455.134 138.354 455.475 139.784 460.631 142.69C 462.754 143.886 468.451 144.119 470.836 144.301C 468.795 143.449 467.04 142.726 464.564 141.302C 463.144 140.491 462.237 137.637 461.539 136.228C 461.017 135.188 460.591 131.857 460.3 129.839C 461.557 131.414 463.008 134.518 464.147 135.521ZM 90.0332 89.2812C 89.1596 95.3633 83.3791 101.368 76.2311 102.199C 70.3676 102.885 63.2405 94.5628 64.6284 89.4064C 65.2624 87.0411 70.1853 88.8757 74.4482 84.9978C 78.7057 81.125 73.5851 53.7971 75.0719 53.7141C 76.4602 53.6465 84.1901 65.9251 87.4597 74.045C 89.7315 79.6904 90.792 83.9946 90.0332 89.2812Z"/>
<path id="path1_fill" d="M 52.6668 18.35C 58.5668 18.35 63.0918 19.4 66.2418 21.5C 69.4418 23.55 71.0418 26.675 71.0418 30.875C 71.0418 33.575 69.9668 36.075 67.8168 38.375C 65.7168 40.625 62.6668 42.1 58.6668 42.8L 58.6668 42.95C 64.0168 42.95 68.1168 44.175 70.9668 46.625C 73.8668 49.075 75.3168 52.3 75.3168 56.3C 75.3168 59.3 74.5418 61.925 72.9918 64.175C 71.4918 66.375 69.3918 68.075 66.6918 69.275C 64.0418 70.425 61.0168 71 57.6168 71L 35.7168 71L 35.7168 68.525C 37.4668 68.475 38.7168 68.075 39.4668 67.325C 40.2168 66.575 40.6418 65.675 40.7418 64.625C 40.8418 63.525 40.8918 61.625 40.8918 58.925L 40.8918 27.425C 40.8918 24.725 40.9668 22.75 41.1168 21.5L 35.7168 21.8L 35.7168 18.5C 43.0168 18.4 48.6668 18.35 52.6668 18.35ZM 53.0418 21.05C 51.4418 21.05 50.2418 21.275 49.4418 21.725C 48.6418 22.175 48.0918 22.9 47.7918 23.9C 47.5418 24.9 47.4168 26.375 47.4168 28.325L 47.4168 42.275L 52.8918 42.125C 56.8418 42.075 59.7168 41 61.5168 38.9C 63.3168 36.75 64.2168 34.125 64.2168 31.025C 64.2168 27.275 63.1168 24.675 60.9168 23.225C 58.7668 21.775 56.1418 21.05 53.0418 21.05ZM 55.1418 44.975C 52.3918 44.975 49.8168 45.05 47.4168 45.2L 47.4168 62.15C 47.4168 64.75 47.3418 66.7 47.1918 68C 48.1418 68.1 49.9418 68.15 52.5918 68.15L 55.1418 68.15C 59.0918 68.15 62.2168 67.175 64.5168 65.225C 66.8668 63.225 68.0418 60.4 68.0418 56.75C 68.0418 52.5 66.8418 49.475 64.4418 47.675C 62.0918 45.875 58.9918 44.975 55.1418 44.975ZM 88.4611 16.4C 89.6111 16.4 90.5611 16.85 91.3111 17.75C 92.1111 18.6 92.5111 19.65 92.5111 20.9C 92.5111 22.1 92.0861 23.15 91.2361 24.05C 90.4361 24.9 89.4861 25.325 88.3861 25.325C 87.3361 25.325 86.4111 24.9 85.6111 24.05C 84.8111 23.15 84.4111 22.1 84.4111 20.9C 84.4111 19.7 84.8111 18.65 85.6111 17.75C 86.4611 16.85 87.4111 16.4 88.4611 16.4ZM 91.8361 63.05C 91.8361 65.3 91.7361 67 91.5361 68.15L 96.2611 67.925L 96.2611 71L 80.9611 71L 80.9611 68.75C 82.4111 68.75 83.4361 68.4 84.0361 67.7C 84.6861 66.95 85.0611 66.025 85.1611 64.925C 85.3111 63.775 85.3861 62 85.3861 59.6L 85.3861 42.5C 85.3861 41.05 85.4861 39.425 85.6861 37.625L 80.3611 37.925L 80.3611 34.775C 83.3111 34.775 85.4111 34.6 86.6611 34.25C 87.9611 33.9 88.9611 33.4 89.6611 32.75L 91.8361 32.75L 91.8361 63.05ZM 115.48 32.3C 117.03 32.3 118.605 32.55 120.205 33.05C 121.855 33.55 123.38 34.375 124.78 35.525L 124.63 32.675L 127.78 32.675L 127.78 45.8L 125.38 45.8C 125.23 42.9 124.33 40.4 122.68 38.3C 121.08 36.15 118.805 35.075 115.855 35.075C 113.605 35.075 111.805 35.65 110.455 36.8C 109.155 37.9 108.505 39.225 108.505 40.775C 108.505 42.225 108.93 43.45 109.78 44.45C 110.68 45.45 111.78 46.3 113.08 47C 114.38 47.7 116.13 48.475 118.33 49.325C 120.93 50.375 123.03 51.35 124.63 52.25C 126.23 53.15 127.58 54.35 128.68 55.85C 129.83 57.3 130.405 59.075 130.405 61.175C 130.405 63.575 129.78 65.6 128.53 67.25C 127.33 68.9 125.73 70.15 123.73 71C 121.78 71.8 119.68 72.2 117.43 72.2C 115.08 72.2 112.93 71.875 110.98 71.225C 109.03 70.625 107.355 69.85 105.955 68.9L 106.255 71.525L 103.105 71.525L 102.655 58.625L 104.98 58.625C 105.08 60.675 105.63 62.5 106.63 64.1C 107.68 65.7 109.03 66.975 110.68 67.925C 112.38 68.825 114.18 69.275 116.08 69.275C 118.23 69.275 120.13 68.775 121.78 67.775C 123.48 66.725 124.33 65.25 124.33 63.35C 124.33 61.95 123.905 60.775 123.055 59.825C 122.255 58.875 121.23 58.1 119.98 57.5C 118.78 56.85 117.08 56.1 114.88 55.25C 112.23 54.25 110.105 53.325 108.505 52.475C 106.905 51.575 105.53 50.375 104.38 48.875C 103.23 47.375 102.655 45.475 102.655 43.175C 102.655 41.525 103.055 39.875 103.855 38.225C 104.655 36.575 106.005 35.175 107.905 34.025C 109.805 32.875 112.33 32.3 115.48 32.3ZM 155.372 32.3C 158.822 32.3 161.997 33.15 164.897 34.85C 167.797 36.5 170.072 38.775 171.722 41.675C 173.422 44.575 174.272 47.8 174.272 51.35C 174.272 55.15 173.422 58.65 171.722 61.85C 170.072 65.05 167.797 67.575 164.897 69.425C 162.047 71.275 158.872 72.2 155.372 72.2C 151.922 72.2 148.747 71.4 145.847 69.8C 142.997 68.15 140.722 65.875 139.022 62.975C 137.372 60.075 136.547 56.8 136.547 53.15C 136.547 49.25 137.372 45.725 139.022 42.575C 140.672 39.375 142.922 36.875 145.772 35.075C 148.672 33.225 151.872 32.3 155.372 32.3ZM 155.372 35.15C 151.672 35.15 148.872 36.675 146.972 39.725C 145.122 42.775 144.197 46.525 144.197 50.975C 144.197 54.175 144.622 57.175 145.472 59.975C 146.372 62.725 147.697 64.95 149.447 66.65C 151.247 68.35 153.422 69.2 155.972 69.2C 159.622 69.2 162.297 67.7 163.997 64.7C 165.747 61.7 166.622 57.975 166.622 53.525C 166.622 48.475 165.672 44.15 163.772 40.55C 161.922 36.95 159.122 35.15 155.372 35.15ZM 203.669 32.3C 208.019 32.3 211.194 33.675 213.194 36.425C 215.194 39.125 216.194 43.35 216.194 49.1L 216.194 63.05C 216.194 65.3 216.094 67 215.894 68.15L 220.619 67.925L 220.619 71L 205.319 71L 205.319 68.75C 206.769 68.75 207.794 68.4 208.394 67.7C 209.044 66.95 209.419 66.025 209.519 64.925C 209.669 63.775 209.744 62 209.744 59.6L 209.744 49.1C 209.694 44.8 208.994 41.575 207.644 39.425C 206.294 37.225 204.169 36.125 201.269 36.125C 199.469 36.125 197.669 36.575 195.869 37.475C 194.119 38.375 192.669 39.55 191.519 41C 191.569 41.55 191.594 42.525 191.594 43.925L 191.519 63.05C 191.519 65.3 191.419 67 191.219 68.15L 195.944 67.925L 195.944 71L 180.644 71L 180.644 68.75C 182.094 68.75 183.119 68.4 183.719 67.7C 184.369 66.95 184.744 66.05 184.844 65C 184.944 63.9 185.019 62.1 185.069 59.6L 185.144 42.5C 185.144 40.4 185.244 38.775 185.444 37.625L 180.119 37.925L 180.119 34.775C 183.069 34.775 185.094 34.625 186.194 34.325C 187.294 33.975 188.219 33.45 188.969 32.75L 191.144 32.75C 191.244 33.7 191.344 35.225 191.444 37.325C 193.144 35.825 195.069 34.625 197.219 33.725C 199.419 32.775 201.569 32.3 203.669 32.3ZM 262.328 17.3C 264.578 17.3 266.828 17.6 269.078 18.2C 271.378 18.75 273.478 19.725 275.378 21.125L 275.078 17.9L 278.903 17.9L 278.903 34.4L 276.203 34.4C 275.953 30.45 274.678 27.125 272.378 24.425C 270.128 21.675 266.953 20.3 262.853 20.3C 259.853 20.3 257.503 21.15 255.803 22.85C 254.103 24.5 253.253 26.575 253.253 29.075C 253.253 31.075 253.828 32.8 254.978 34.25C 256.128 35.7 257.528 36.9 259.178 37.85C 260.828 38.8 263.153 39.975 266.153 41.375C 269.553 42.925 272.278 44.325 274.328 45.575C 276.428 46.825 278.203 48.475 279.653 50.525C 281.103 52.525 281.828 55 281.828 57.95C 281.828 60.75 281.128 63.225 279.728 65.375C 278.378 67.525 276.378 69.2 273.728 70.4C 271.078 71.6 267.928 72.2 264.278 72.2C 261.928 72.2 259.553 71.875 257.153 71.225C 254.803 70.575 252.728 69.625 250.928 68.375L 251.303 71.6L 247.403 71.6L 246.953 55.625L 249.878 55.625C 250.128 59.925 251.603 63.25 254.303 65.6C 257.003 67.9 260.428 69.05 264.578 69.05C 267.628 69.05 270.178 68.225 272.228 66.575C 274.328 64.875 275.378 62.575 275.378 59.675C 275.378 57.525 274.778 55.7 273.578 54.2C 272.428 52.65 270.978 51.375 269.228 50.375C 267.528 49.325 265.203 48.125 262.253 46.775C 258.903 45.175 256.228 43.775 254.228 42.575C 252.278 41.375 250.603 39.8 249.203 37.85C 247.803 35.85 247.103 33.4 247.103 30.5C 247.103 28.5 247.553 26.5 248.453 24.5C 249.403 22.5 251.003 20.8 253.253 19.4C 255.553 18 258.578 17.3 262.328 17.3ZM 298.813 33.5L 311.413 33.5L 311.413 36.425L 298.813 36.575C 298.763 44.225 298.713 49.525 298.663 52.475C 298.663 55.425 298.663 57.075 298.663 57.425C 298.663 60.975 299.088 63.625 299.938 65.375C 300.788 67.075 302.263 67.925 304.363 67.925C 305.663 67.925 306.938 67.525 308.188 66.725C 309.488 65.925 310.613 64.825 311.563 63.425L 313.588 65.075C 311.638 67.975 309.713 69.9 307.813 70.85C 305.913 71.75 304.063 72.2 302.263 72.2C 295.413 72.2 292.013 67.6 292.063 58.4L 292.213 36.65L 286.438 36.725L 286.438 33.5C 288.838 33.45 290.863 32.375 292.513 30.275C 294.213 28.125 295.463 25.7 296.263 23L 298.813 23L 298.813 33.5ZM 351.367 61.1C 351.367 64 351.267 66.35 351.067 68.15L 356.467 67.85L 356.467 71L 345.742 71C 345.492 69.45 345.317 67.95 345.217 66.5C 343.567 68.15 341.642 69.525 339.442 70.625C 337.242 71.675 335.092 72.2 332.992 72.2C 328.742 72.2 325.617 70.975 323.617 68.525C 321.667 66.075 320.692 61.85 320.692 55.85L 320.692 42.5C 320.692 40.4 320.792 38.775 320.992 37.625L 315.817 37.85L 315.817 34.775L 318.142 34.775C 320.092 34.775 321.567 34.6 322.567 34.25C 323.567 33.9 324.417 33.4 325.117 32.75L 327.292 32.75L 327.292 55.625C 327.292 60.025 327.892 63.25 329.092 65.3C 330.342 67.35 332.392 68.375 335.242 68.375C 337.092 68.375 338.892 67.825 340.642 66.725C 342.442 65.625 343.892 64.25 344.992 62.6L 344.992 43.325C 344.992 40.975 345.117 39.075 345.367 37.625L 339.967 37.85L 339.967 34.775L 342.292 34.775C 344.242 34.775 345.717 34.6 346.717 34.25C 347.717 33.9 348.567 33.4 349.267 32.75L 351.442 32.75L 351.367 61.1ZM 396.193 63.05C 396.193 64.65 396.093 66.35 395.893 68.15L 401.218 67.85L 401.218 71L 390.493 71C 390.243 69.65 390.068 68.35 389.968 67.1C 388.518 68.7 386.743 69.95 384.643 70.85C 382.593 71.75 380.368 72.2 377.968 72.2C 374.868 72.2 372.093 71.425 369.643 69.875C 367.193 68.325 365.268 66.125 363.868 63.275C 362.468 60.425 361.768 57.1 361.768 53.3C 361.768 49.3 362.593 45.7 364.243 42.5C 365.893 39.3 368.168 36.8 371.068 35C 374.018 33.2 377.343 32.3 381.043 32.3C 382.593 32.3 384.168 32.525 385.768 32.975C 387.418 33.375 388.768 33.85 389.818 34.4L 389.818 24.125C 389.818 22.225 389.893 20.6 390.043 19.25L 384.718 19.55L 384.718 16.4C 387.668 16.4 389.768 16.225 391.018 15.875C 392.318 15.525 393.318 15.025 394.018 14.375L 396.193 14.375L 396.193 63.05ZM 381.493 35.225C 377.893 35.225 374.993 36.725 372.793 39.725C 370.593 42.675 369.493 46.6 369.493 51.5C 369.493 56.6 370.468 60.725 372.418 63.875C 374.368 66.975 377.118 68.525 380.668 68.525C 382.268 68.525 383.893 68.075 385.543 67.175C 387.243 66.225 388.668 65.025 389.818 63.575C 389.768 62.775 389.743 61.4 389.743 59.45L 389.818 37.85C 387.468 36.1 384.693 35.225 381.493 35.225ZM 414.242 16.4C 415.392 16.4 416.342 16.85 417.092 17.75C 417.892 18.6 418.292 19.65 418.292 20.9C 418.292 22.1 417.867 23.15 417.017 24.05C 416.217 24.9 415.267 25.325 414.167 25.325C 413.117 25.325 412.192 24.9 411.392 24.05C 410.592 23.15 410.192 22.1 410.192 20.9C 410.192 19.7 410.592 18.65 411.392 17.75C 412.242 16.85 413.192 16.4 414.242 16.4ZM 417.617 63.05C 417.617 65.3 417.517 67 417.317 68.15L 422.042 67.925L 422.042 71L 406.742 71L 406.742 68.75C 408.192 68.75 409.217 68.4 409.817 67.7C 410.467 66.95 410.842 66.025 410.942 64.925C 411.092 63.775 411.167 62 411.167 59.6L 411.167 42.5C 411.167 41.05 411.267 39.425 411.467 37.625L 406.142 37.925L 406.142 34.775C 409.092 34.775 411.192 34.6 412.442 34.25C 413.742 33.9 414.742 33.4 415.442 32.75L 417.617 32.75L 417.617 63.05ZM 446.436 32.3C 449.886 32.3 453.061 33.15 455.961 34.85C 458.861 36.5 461.136 38.775 462.786 41.675C 464.486 44.575 465.336 47.8 465.336 51.35C 465.336 55.15 464.486 58.65 462.786 61.85C 461.136 65.05 458.861 67.575 455.961 69.425C 453.111 71.275 449.936 72.2 446.436 72.2C 442.986 72.2 439.811 71.4 436.911 69.8C 434.061 68.15 431.786 65.875 430.086 62.975C 428.436 60.075 427.611 56.8 427.611 53.15C 427.611 49.25 428.436 45.725 430.086 42.575C 431.736 39.375 433.986 36.875 436.836 35.075C 439.736 33.225 442.936 32.3 446.436 32.3ZM 446.436 35.15C 442.736 35.15 439.936 36.675 438.036 39.725C 436.186 42.775 435.261 46.525 435.261 50.975C 435.261 54.175 435.686 57.175 436.536 59.975C 437.436 62.725 438.761 64.95 440.511 66.65C 442.311 68.35 444.486 69.2 447.036 69.2C 450.686 69.2 453.361 67.7 455.061 64.7C 456.811 61.7 457.686 57.975 457.686 53.525C 457.686 48.475 456.736 44.15 454.836 40.55C 452.986 36.95 450.186 35.15 446.436 35.15Z"/>
</defs>
</svg>
