<svg width="100%"  viewBox="0 0 475 282" version="1.1" xmlns="http://www.w3.org/2000/svg" xmlns:xlink="http://www.w3.org/1999/xlink">
<title>Vector</title>
<desc>Created using Figma</desc>
<g id="Canvas" transform="translate(-303 142)">
<g id="Vector">
<g id="Vector">
<use xlink:href="#path0_fill" transform="matrix(-1 0 0 1 778 -142)" fill="#292b2c"/>
</g>
</g>
</g>
<defs>
<path id="path0_fill" d="M 464.147 135.521C 465.843 137.034 467.652 137.876 472.678 138.624C 471.145 137.611 468.12 135.069 467.448 132.813C 469.235 134.159 471.612 134.897 475 135.916C 472.038 132.813 470.26 132.241 468.8 130.879C 468.278 130.401 467.358 129.335 466.881 128.82C 465.997 127.879 464.101 126.122 463.366 125.067C 462.636 124.001 462.636 124.001 461.053 120.415C 464.645 123.487 463.865 122.057 469.185 127.006C 467.276 121.439 463.761 118.091 460.269 114.988C 456.785 111.889 456.014 107.626 456.014 107.626C 456.014 107.626 454.463 90.9657 450.979 85.5385C 447.486 80.1167 440.879 71.248 421.91 65.7795C 420.428 65.3482 416.446 64.4279 411.451 63.456C 402.535 61.7193 395.143 58.9123 381.611 52.9862C 372.634 49.0561 360.839 48.8276 354.491 46.3997C 351.565 45.2874 345.961 41.3625 345.961 41.3625L 341.308 38.649L 337.805 37.3546L 333.563 36.3253C 333.563 36.3253 325.817 31.6727 324.263 31.6727C 322.708 31.6727 314.188 28.5745 313.024 28.1898C 311.865 27.7999 306.822 25.4762 304.493 23.9271C 302.164 22.378 292.88 19.2745 292.88 19.2745C 292.88 19.2745 284.739 16.1763 283.185 16.1763C 281.641 16.1763 273.111 13.4627 270.787 13.0729C 268.474 12.6882 261.497 10.3593 261.497 10.3593L 252.296 7.65092L 244.213 6.51767C 244.213 6.51767 236.67 6.53327 234.361 5.71715C 232.532 5.06735 226.72 3.01396 224.006 3.01396C 221.293 3.01396 215.762 4.1992 214.212 3.03475C 212.664 1.87031 203.363 0.321193 202.199 0.321193C 201.034 0.321193 194.833 0.321193 193.289 0.321193C 191.74 0.321193 187.477 -0.0634888 185.923 0.321193C 184.374 0.711073 174.85 0.321193 174.85 0.321193C 174.85 0.321193 170.275 -0.484562 167.583 0.456344C 164.875 1.39726 154.93 3.77812 153.765 3.77812C 152.601 3.77812 150.278 4.93736 148.344 5.71715C 146.405 6.49168 139.044 8.43071 139.044 8.43071L 130.518 12.3087C 130.518 12.3087 124.134 14.2113 122.195 14.6012C 120.262 14.9859 115.833 19.077 115.058 20.2415C 114.284 21.4059 113.343 22.5755 111.019 23.3501C 108.695 24.1246 106.169 26.1416 106.169 26.1416C 106.169 26.1416 105.327 28.5797 102.613 28.5797C 99.9047 28.5797 99.1251 28.9643 97.9608 29.3543C 96.8015 29.7441 96.0268 30.9034 93.6979 31.2932C 91.3743 31.6779 89.0503 34.3915 89.0503 34.3915C 89.0503 34.3915 86.7735 37.8121 86.7735 38.9765C 86.7735 40.1357 83.2752 40.8583 83.2752 40.8583L 80.7177 42.7453C 80.7177 42.7453 79.2046 45.2614 78.5914 46.0205C 77.9052 46.8727 76.5795 48.9836 75.4932 49.1187C 74.3702 49.2539 72.7066 47.0963 71.6149 46.7947C 70.7731 46.5612 69.0002 46.7947 68.1271 46.7947C 67.259 46.7947 65.4811 47.0183 64.6438 46.7947C 63.3444 46.4414 61.5923 43.7902 60.423 44.4608C 59.877 44.7779 60.511 46.2437 59.9913 46.6024C 56.9035 48.7133 56.5447 43.7798 55.0947 44.7831C 54.0602 45.5003 54.6267 48.8067 53.4052 49.1133C 52.0169 49.4671 51.1906 44.7311 49.761 44.7727C 48.3781 44.8143 47.9155 47.7617 47.4583 49.0716C 46.3924 52.0868 46.9018 55.0965 45.2695 56.0898C 44.5262 56.542 43.632 56.6667 43.0134 57.2854C 42.1869 58.1118 41.7762 59.5259 40.9912 60.3836C 38.1061 63.5439 39.1666 61.922 38.5688 62.6709C 37.7266 63.7313 35.5173 60.165 34.2593 60.6539C 31.8368 61.5946 30.6048 61.8649 29.8875 62.8994C 28.4007 65.0361 26.5865 62.811 27.0647 63.4764C 27.3974 63.9444 25.3804 64.2873 24.9697 64.6928C 24.0808 65.5817 22.724 65.0307 21.4712 65.0983C 17.9675 65.2906 19.9793 68.6387 19.3139 69.8084C 17.5568 72.922 14.6613 70.2969 14.0739 72.0072C 13.1694 74.6532 12.8731 75.2043 12.7171 76.2751C 12.1973 79.8101 8.81831 79.0872 8.1373 80.0491C 7.66425 80.7145 9.16659 83.2358 8.84947 83.9896C 7.80462 86.5263 7.91896 88.6889 8.84947 89.8014C 9.47328 90.5448 11.4227 91.314 11.9529 92.125C 12.4364 92.8788 11.8074 94.6254 11.3707 95.4C 9.56168 98.6021 10.8873 99.4339 10.6949 100.791C 10.5078 102.095 8.53239 103.328 7.98654 104.528C 7.54991 105.5 8.03852 107.73 7.98654 108.791C 7.83578 111.9 4.79472 113.277 4.97147 114.988C 5.37694 118.845 5.49133 118.881 4.97147 120.025C 4.57121 120.908 5.22618 122.962 4.97147 123.903C 4.61797 125.202 2.08636 127.214 2.26311 128.55C 2.6166 131.269 0.911524 132.953 0.324106 134.367C 0.0225979 135.079 -0.221727 136.915 0.324106 137.471C 1.07787 138.224 3.44835 138.36 4.36327 138.9C 5.72527 139.716 8.4596 142.508 9.62405 142.508C 10.7885 142.508 10.5805 144.348 10.7885 145.216C 11.1264 146.625 11.1784 151.023 11.1784 151.023L 11.1784 156.455C 11.1784 156.455 9.85799 159.99 10.4038 161.877C 12.452 168.931 17.8375 172.7 23.956 171.967C 23.956 171.967 29.4456 176.76 31.0415 177.41C 32.9753 178.179 36.3595 177.753 37.9138 180.466C 39.4629 183.196 43.9023 195.688 46.7353 197.361C 49.761 199.15 52.3707 210.144 54.9646 212.244C 58.1721 214.843 64.7998 215.218 65.4239 214.953C 65.9332 214.75 65.3042 213.523 65.7926 213.279C 66.4009 212.972 69.4056 213.653 69.6864 213.014C 70.1177 212.057 68.1375 210.435 68.709 209.562C 69.3068 208.647 71.3341 210.586 72.1142 209.837C 72.6082 209.359 71.1264 207.758 71.5215 207.197C 71.8022 206.791 72.8472 207.582 73.1746 207.207C 74.0686 206.194 72.8835 202.081 74.1312 201.53C 74.6977 201.286 75.3009 202.575 75.8569 202.3C 76.9904 201.759 75.124 198.723 75.9504 197.772C 76.3976 197.252 77.3178 198.942 77.7646 198.432C 78.2118 197.902 77.2503 196.363 78.2118 195.194C 79.0178 194.211 80.2133 195.355 80.7122 195.001C 81.4193 194.482 79.7815 192.922 80.5353 192.485C 82.9528 191.076 84.0599 192.09 86.9762 191.529C 88.9206 191.154 90.0381 189.507 91.0001 189.387C 91.7485 189.283 93.0325 190.858 94.2643 190.079C 94.9197 189.652 95.5016 192.147 96.2813 192.09C 97.6537 191.981 98.413 189.876 99.0833 191.076C 99.6398 192.09 101.547 193.057 102.333 192.314C 103.216 191.482 103.991 191.804 105.135 192.87C 105.535 193.244 107.094 193.223 107.604 193.426C 108.139 193.65 109.049 195.703 109.506 195.334C 110.515 194.554 110.956 191.872 111.076 192.417C 111.414 193.993 112.199 196.233 114.247 196.743C 115.115 196.956 116.883 197.788 117.735 197.512C 118.713 197.195 119.482 194.05 120.444 194.414C 121.53 194.819 119.388 199.55 120.444 199.067C 121.951 198.354 122.398 197.574 123.547 199.067C 124.01 199.664 124.706 201.005 125.871 201.005C 127.035 201.005 129.198 201.359 128.974 202.165C 127.784 206.427 128.569 216.065 128.231 217.079C 127.004 220.754 126.957 222.34 126.645 224.258C 126.401 225.771 125.314 228.656 124.706 230.065C 124.057 231.567 122.144 234.317 121.608 235.871C 121.062 237.456 120.319 248.077 119.898 250.187C 119.638 251.498 117.574 253.722 116.717 254.757C 115.396 256.374 112.355 257.252 110.754 258.583C 108.493 260.459 105.472 263.812 106.58 264.94C 107.942 266.334 117.486 268.454 118.967 268.444C 120.989 268.444 131.09 267.644 133.346 265.622C 134.864 264.27 137.681 263.105 138.763 261.359C 139.735 259.794 139.87 255.895 140.109 254.071C 140.452 251.492 143.161 246.569 142.802 243.991C 142.646 242.873 141.83 241.017 142.241 239.952C 142.604 239.016 142.922 239.635 143.696 238.975C 145.188 237.727 145.245 232.211 147.184 232.008C 148.416 231.879 149.55 234.883 150.283 235.876C 151.135 237.036 153.319 238.995 154.545 239.754C 155.694 240.466 158.47 242.457 159.583 241.693C 160.305 241.194 158.933 238.787 159.583 238.21C 160.238 237.613 162.301 239.011 163.071 238.584C 164.022 238.065 164.027 235.164 165.01 234.707C 165.374 234.556 166.179 234.982 166.559 235.112C 167.401 235.357 169.158 236.765 169.875 236.261C 170.271 235.986 169.407 234.452 169.875 234.322C 170.852 234.046 171.227 236.869 172.168 236.485C 172.729 236.24 173.171 232.82 174.185 231.884C 174.788 231.317 176.779 232.159 177.403 231.619C 178.317 230.818 178.551 227.049 179.726 227.356C 180.382 227.517 180.152 229.233 180.454 228.635C 183.77 221.924 187.087 216.887 189.416 216.117C 191.74 215.337 191.901 213.944 194.069 215.337C 194.823 215.826 195.03 212.665 195.909 212.847C 196.762 213.009 197.645 214.339 197.843 215.181C 198.046 216.023 198.342 217.25 199.163 217.537C 200.208 217.879 200.442 215.447 201.544 215.504C 202.672 215.587 203.072 218.904 203.374 219.99C 203.66 221.014 204.003 223.026 204.351 224.019C 205.063 226.119 207.252 229.29 207.636 231.998C 208.021 234.702 207.751 240.679 207.636 242.073C 207.486 243.872 208.37 246.58 207.72 249.434C 207.086 252.205 205.292 255.823 204.538 257.954C 204.081 259.274 198.295 262.83 197.547 263.994C 197.063 264.748 193.481 268.361 193.59 269.255C 193.689 270.076 199.917 270.981 202.21 271.408C 205.173 271.948 210.755 271.672 212.986 271.672C 214.436 271.672 220.815 268.585 221.527 267.316C 223.268 264.207 223.565 260.532 224.027 259.285C 225.041 256.545 228.217 250.879 228.607 249.325C 228.997 247.77 229.522 244.807 231.57 243.393C 234.595 241.304 234.902 242.083 235.542 242.847C 236.197 243.638 236.706 244.688 237.673 244.318C 238.76 243.913 237.132 241.61 238.261 241.293C 239.347 240.997 239.643 243.435 240.73 243.133C 242.357 242.676 239.908 240.607 240.579 240.139C 241.452 239.562 243.412 241.288 244.145 240.534C 244.805 239.853 242.268 238.907 242.918 238.21C 243.526 237.519 246.552 239.156 247.103 238.413C 247.815 237.467 244.218 235.591 244.332 234.421C 244.415 233.464 246.302 233.002 247.082 232.44C 247.784 231.931 249.042 231.962 249.499 231.234C 249.905 230.574 249.39 229.607 250.097 229.306C 251.002 228.921 252.655 230.319 252.322 229.415C 251.885 228.266 249.146 226.784 248.73 225.412C 248.455 224.508 250.263 227.039 250.809 226.275C 251.579 225.188 248.382 223.431 249.115 222.314C 249.572 221.622 251.672 223.592 252.322 223.083C 253.164 222.413 251.756 220.624 252.322 219.995C 252.821 219.429 253.965 221.336 254.474 220.775C 255.207 219.964 254.282 217.344 254.687 216.33C 254.942 215.732 254.687 216.331 254.932 215.722C 255.285 214.776 252.374 214.412 252.728 213.466C 253.123 212.38 255.498 212.582 256.86 211.839C 257.988 211.231 252.982 210.612 252.322 209.515C 251.969 208.938 253.304 207.415 252.899 206.864C 252.525 206.355 249.863 206.672 249.884 206.022C 249.926 204.832 254.495 206.063 254.537 204.862C 254.588 203.646 249.905 204.535 249.884 203.319C 249.874 202.18 248.563 202.284 248.647 201.156C 248.751 199.726 250.212 199.966 249.115 199.056C 248.637 198.661 246.079 197.627 245.736 197.117C 245.288 196.467 244.66 195.713 245.065 194.648C 245.361 193.837 244.062 193.816 244.275 192.964C 244.628 191.581 245.2 192.922 244.467 191.695C 243.921 190.759 244.628 188.394 244.946 187.359C 245.148 186.71 245.341 185.067 246.022 185.104C 248.548 185.254 245.928 182.14 246.297 181.642C 247.056 180.617 250.539 180.404 251.568 179.619C 253.627 178.086 255.711 176.968 261.528 176.573C 267.335 176.188 269.274 177.732 272.757 178.117C 276.251 178.522 283.216 178.522 287.094 179.287C 290.972 180.066 304.031 184.568 308.059 184.22C 311.563 183.934 310.913 186.289 313.44 187.359C 315.92 188.415 319.631 188.113 322.74 187.359C 331.676 185.207 338.304 181.34 341.017 179.401C 343.731 177.462 355.251 167.387 357.616 168.058C 360.865 168.983 360.974 187.879 361.759 191.846C 362.482 195.49 365.335 218.113 364.561 221.217C 363.791 224.315 358 236.641 356.847 239.349C 355.677 242.057 347.152 254.455 344.823 256.395C 342.494 258.333 336.302 263.381 334.363 266.079C 332.435 268.787 330.87 270.342 334.748 271.116C 338.626 271.891 340.95 273.055 346.772 273.055C 352.579 273.055 356.062 273.44 359.939 271.116C 363.807 268.792 366.531 266.853 367.301 263.381C 368.07 259.888 369.239 255.625 370.783 252.527C 372.338 249.418 380.125 235.938 383.504 231.52C 387.007 226.95 389.768 221.134 392.092 219.579C 394.426 218.035 395.2 216.096 395.585 213.772C 395.97 211.459 393.932 207.254 393.932 203.386C 393.932 199.519 394.431 189.621 394.431 187.354C 394.431 185.099 399.468 179.281 399.468 179.281C 399.468 179.281 415.349 196.722 418.058 199.82C 420.766 202.929 429.681 208.351 431.621 210.664C 433.559 212.988 442.09 221.913 442.859 226.566C 443.629 231.218 449.451 250.588 449.836 253.686C 450.22 256.795 447.491 263.137 447.174 264.712C 446.727 266.947 443.946 273.892 443.244 274.999C 442.656 275.935 441.518 278.311 442.085 279.262C 443.301 281.305 450.277 281.201 451.405 281.201C 452.544 281.201 458.858 280.411 461.643 278.935C 463.72 277.848 465.956 274.61 466.455 273.117C 467.167 271.007 465.562 265.159 465.784 262.913C 465.988 260.834 465.217 252.069 465.217 250.13C 465.217 248.191 466.101 247.115 466.85 246.658C 467.326 246.362 465.625 246.538 465.562 245.977C 465.43 244.859 465.743 244.272 465.339 243.217C 465.04 242.494 467.512 240.971 466.881 240.508C 461.747 236.682 463.652 236.568 466.496 235.855C 467.126 235.705 464.332 235.325 464.174 234.686C 464.051 234.208 465.035 233.459 465.321 233.053C 465.707 232.497 463.221 232.424 463.099 231.754C 462.768 230.028 462.083 228.375 461.076 226.95C 460.223 225.755 460.296 223.842 460.296 221.134C 460.296 218.425 458.355 212.993 458.355 209.51C 458.355 206.017 456.427 200.605 456.427 199.051C 456.427 197.496 456.853 193.192 454.871 191.69C 448.863 187.131 435.665 173.516 433.949 162.62C 432.499 153.393 437.541 139.711 438.773 133.099C 439.808 127.552 437.817 111.198 437.422 108.099C 437.037 105.001 438.602 94.038 435.888 88.6108C 433.174 83.1836 429.687 78.1465 429.687 78.1465C 429.687 78.1465 437.442 78.9212 440.926 82.409C 444.419 85.8972 449.056 91.709 449.841 97.1362C 450.61 102.558 452.939 109.919 452.549 111.468C 452.165 113.017 447.127 121.932 447.127 123.092C 447.127 124.251 445.89 129.496 445.957 132.007C 445.989 132.875 446.737 134.232 447.268 135.688C 447.798 137.143 453.796 140.829 455.81 141.728C 453.688 138.474 451.686 136.837 449.841 132.782C 455.134 138.354 455.475 139.784 460.631 142.69C 462.754 143.886 468.451 144.119 470.836 144.301C 468.795 143.449 467.04 142.726 464.564 141.302C 463.144 140.491 462.237 137.637 461.539 136.228C 461.017 135.188 460.591 131.857 460.3 129.839C 461.557 131.414 463.008 134.518 464.147 135.521ZM 90.0332 89.2812C 89.1596 95.3633 83.3791 101.368 76.2311 102.199C 70.3676 102.885 63.2405 94.5628 64.6284 89.4064C 65.2624 87.0411 70.1853 88.8757 74.4482 84.9978C 78.7057 81.125 73.5851 53.7971 75.0719 53.7141C 76.4602 53.6465 84.1901 65.9251 87.4597 74.045C 89.7315 79.6904 90.792 83.9946 90.0332 89.2812Z"/>
</defs>
</svg>
